<svg width="24" height="24" viewBox="0 0 24 24" fill="none" xmlns="http://www.w3.org/2000/svg">
<path d="M0 1C0 0.447716 0.447715 0 1 0H23C23.5523 0 24 0.447715 24 1V23C24 23.5523 23.5523 24 23 24H1C0.447716 24 0 23.5523 0 23V1Z" fill="white" fill-opacity="0.24"/>
<path d="M5.14149 4.48105L12.8464 4.48105C14.8294 4.48105 16.4693 5.1697 17.7667 6.54697C19.0642 7.92426 19.7129 9.66311 19.7129 11.764C19.7129 13.8509 19.071 15.534 17.7867 16.814C16.5026 18.0939 14.8559 18.7339 12.8463 18.7339L5.14146 18.7339V16.2506H12.8463C14.1507 16.2506 15.2252 15.8125 16.07 14.9359C16.9152 14.0595 17.3376 12.9327 17.3376 11.5554C17.3376 10.1917 16.9152 9.08573 16.07 8.23732C15.2252 7.3886 14.1508 6.96434 12.8463 6.96434L5.14146 6.96434L5.14149 4.48105Z" fill="#2437A7"/>
</svg>
